<svg width="197" height="45" viewBox="0 0 197 45" fill="none" xmlns="http://www.w3.org/2000/svg">
<path d="M38.5323 7.16961L38.0314 6.76127C36.258 5.3226 34.1902 4.11183 31.8826 3.15984C30.0522 2.40489 28.0675 1.81375 25.9831 1.39829C22.6167 0.728812 20.0931 0.738308 19.7488 0.74543C19.4046 0.740682 16.881 0.728812 13.5146 1.39829C11.4301 1.81375 9.44544 2.40726 7.61505 3.15984C5.30747 4.11183 3.23967 5.3226 1.46626 6.76127L0.965332 7.16961V22.1309C0.965332 22.3635 0.989073 25.7703 3.22068 30.1979C4.5359 32.8046 6.35443 35.2475 8.62165 37.4554C11.4349 40.1927 14.9532 42.5738 19.077 44.5348L19.7465 44.8529L20.4159 44.5348C24.542 42.5738 28.058 40.1927 30.8713 37.4554C33.1408 35.2475 34.957 32.807 36.2746 30.1979C38.5062 25.7703 38.5323 22.3635 38.5299 22.1309V7.16961H38.5323ZM35.598 22.1332V22.1428C35.598 22.2472 35.5553 25.2694 33.5492 29.1771C31.7235 32.7334 27.8538 37.764 19.7488 41.7809C11.6438 37.7616 7.77411 32.731 5.94847 29.1771C3.94952 25.2836 3.89966 22.2686 3.89966 22.1451V8.42073C7.29693 5.84964 11.264 4.64124 14.0511 4.07859C17.2751 3.4281 19.6895 3.46847 19.7108 3.46847H19.7441H19.7821C19.8058 3.46847 22.2202 3.42573 25.4442 4.07859C28.2313 4.64124 32.196 5.84964 35.5956 8.42073V22.1332H35.598Z" fill="black"/>
<path fill-rule="evenodd" clip-rule="evenodd" d="M73.1612 22.6864L73.7927 19.1728H69.0992L68.7929 20.9296H64.0994L64.7157 17.4123L67.411 15.6592H79.101L75.991 33.2272H64.2544L62.2261 31.4804L62.853 27.9568L63.1569 26.2L63.4656 24.4432L66.1067 22.6864H73.1612ZM67.5463 27.9565L67.2377 29.7133H71.9312L72.546 26.1997H67.8514L67.5463 27.9565Z" fill="black"/>
<path d="M93.5931 15.6589L95.6157 17.4157L94.3836 24.4429L91.7294 26.1997H84.6904L83.444 33.2269H78.7505L81.8605 15.6589H93.5907H93.5931ZM85.3076 22.6861H90.0011L90.616 19.1725H85.9225L85.3076 22.6861Z" fill="black"/>
<path fill-rule="evenodd" clip-rule="evenodd" d="M62.7838 13.2041L60.1853 10.9819H45.1125L41.1094 33.2271H56.1852L59.595 31.0049L60.8743 24.2082L58.2562 21.9972L61.6008 20.6965L62.7838 13.2041ZM55.5707 19.8708H49.541L50.3309 15.4264H56.3606L55.5707 19.8708ZM53.9648 28.7826H47.9351L48.725 24.3382H54.7547L53.9648 28.7826Z" fill="black"/>
<path d="M117.289 15.6589L114.181 33.2269H109.488L111.043 24.4429L104.797 33.2269L101.658 24.4429L100.103 33.2269H95.4121L98.5197 15.6589H103.213L106.349 24.4429L112.598 15.6589H117.289Z" fill="black"/>
<path d="M131.6 15.6589L133.623 17.4157L131.145 31.4701L128.49 33.2269H119.106L117.069 31.4701L119.547 17.4157L122.216 15.6589H131.6ZM122.069 29.7133H126.762L128.623 19.1725H123.93L122.069 29.7133Z" fill="black"/>
<path d="M161.538 10.9641L158.374 28.8027H161.351L159.789 37.722H153.832L154.613 33.2612H133.769L136.915 15.4226L134.738 10.9641H143.671L140.507 28.8027H143.484L146.648 10.9641H152.605L149.44 28.8027H152.417L155.582 10.9641H161.538Z" fill="#E6332A"/>
<path d="M179.416 15.6934L176.306 33.2613H171.615L173.168 24.4773L166.922 33.2613H162.23L165.338 15.6934H170.032L168.477 24.4773L174.723 15.6934H179.416Z" fill="#E6332A"/>
<path d="M196.074 15.6934L195.445 19.207H190.751L188.273 33.2613H183.582L186.06 19.207H181.367L181.998 15.6934H196.074Z" fill="#E6332A"/>
<path fill-rule="evenodd" clip-rule="evenodd" d="M21.8339 22.461C21.5348 22.7269 21.1905 22.9263 20.8225 23.0569L21.746 28.3249L25.5635 31.1144C25.8532 31.3257 25.922 31.7245 25.7202 32.0023L25.7012 32.0284C25.4923 32.2848 25.1077 32.3276 24.8276 32.1234L22.0618 30.1007L22.6814 33.6428C22.7408 33.9894 22.5081 34.3099 22.1591 34.3574C21.8125 34.4049 21.4778 34.1603 21.4161 33.8161L20.7964 30.274L18.8497 32.9353C18.6527 33.2036 18.2704 33.2653 17.9832 33.0754L17.9571 33.0564C17.6698 32.8451 17.5986 32.4463 17.8004 32.1685L20.4854 28.4958L19.5619 23.2278C19.1655 23.2017 18.769 23.102 18.3939 22.9263L17.601 24.0113L18.1968 27.418C18.2372 27.653 18.2325 27.9474 17.9998 28.0756C17.8217 28.173 17.582 28.1279 17.3992 28.0495C17.2187 27.9712 16.9695 27.7979 16.9315 27.5913L16.554 25.4428L15.2958 27.1616L16.0958 31.7317C16.1552 32.0783 15.9225 32.3988 15.5735 32.4463L15.5403 32.451C15.2055 32.4771 14.8898 32.2397 14.8304 31.905L14.2488 28.5932L12.1691 31.4397C11.965 31.7174 11.5637 31.772 11.2741 31.5607C10.9845 31.3494 10.9156 30.9506 11.1198 30.6728L13.1995 27.8264L9.8663 28.2774C9.52918 28.3225 9.20631 28.097 9.13034 27.767L9.12559 27.7338C9.06624 27.3872 9.2989 27.0667 9.64788 27.0192L14.244 26.3948L15.5023 24.676L13.3395 24.968C13.1306 24.9965 12.8908 24.8113 12.7603 24.6617C12.6297 24.5122 12.5134 24.2985 12.5513 24.0967C12.6036 23.8356 12.8813 23.7406 13.1187 23.7098L16.5445 23.2444L17.3374 22.1595C17.0573 21.8556 16.8413 21.5066 16.6964 21.1386L11.3976 21.858L8.71251 25.5306C8.50834 25.8084 8.10712 25.863 7.81749 25.6517L7.79138 25.6327C7.52548 25.4143 7.46613 25.0321 7.66318 24.7638L9.6099 22.1025L6.04882 22.5868C5.69984 22.6343 5.36747 22.3898 5.30574 22.0432C5.24402 21.6966 5.47905 21.3761 5.82804 21.3286L9.38911 20.8466L6.62334 18.8239C6.3432 18.6198 6.26961 18.2376 6.45004 17.9622L6.46903 17.9361C6.6732 17.6583 7.07441 17.6037 7.36405 17.815L11.1815 20.6045L16.4804 19.8852C16.4923 19.4958 16.5777 19.1065 16.7415 18.7409L15.6139 17.9171L12.1857 18.3824C11.9507 18.4156 11.6516 18.399 11.5139 18.164C11.4071 17.9835 11.445 17.7485 11.5186 17.5705C11.5922 17.3948 11.7584 17.1526 11.9673 17.1241L14.1301 16.8298L12.3424 15.524L7.7439 16.1484C7.39491 16.1959 7.06254 15.9514 7.00082 15.6047L6.99607 15.5739C6.95571 15.2391 7.18599 14.9376 7.52311 14.8902L10.8563 14.4391L7.89821 12.2763C7.60857 12.065 7.53973 11.6662 7.74152 11.3884L31.5699 28.8068C31.3657 29.0846 30.9645 29.1392 30.6749 28.9279L27.7168 26.7652L28.2961 30.077C28.3554 30.4117 28.137 30.7227 27.807 30.7868L27.7738 30.7915C27.4248 30.839 27.0924 30.5945 27.0307 30.2479L26.2306 25.6778L24.443 24.3697L24.8204 26.5183C24.8561 26.7272 24.678 26.9551 24.5332 27.0809C24.386 27.2044 24.1747 27.3112 23.9705 27.2661C23.7046 27.2043 23.5978 26.9266 23.5574 26.6916L22.9616 23.2848L21.8339 22.461Z" fill="#0B548E"/>
<path fill-rule="evenodd" clip-rule="evenodd" d="M15.395 16.5494C17.1304 14.1754 20.5371 13.7124 23.0038 15.5167C25.4704 17.321 26.0639 20.7064 24.3285 23.0804L15.3926 16.5471L15.395 16.5494Z" fill="#E6332A"/>
<path fill-rule="evenodd" clip-rule="evenodd" d="M15.1902 16.8274L24.1261 23.3608C22.3907 25.7348 18.9839 26.1978 16.5149 24.3935C14.0482 22.5892 13.4547 19.2038 15.1902 16.8298" fill="#0B548E"/>
<path fill-rule="evenodd" clip-rule="evenodd" d="M7.95117 11.1057L14.1973 15.671C14.5368 15.2081 14.4181 14.541 13.9385 14.1896L9.44445 10.9039C8.96252 10.5526 8.29303 10.6428 7.95354 11.1057" fill="#E6332A"/>
<path fill-rule="evenodd" clip-rule="evenodd" d="M25.5303 23.959L31.7764 28.5243C32.1159 28.0614 31.9972 27.3942 31.5176 27.0429L27.0235 23.7572C26.5416 23.4058 25.8721 23.4961 25.5326 23.959" fill="#E6332A"/>
<path fill-rule="evenodd" clip-rule="evenodd" d="M28.2418 8.35217C28.7237 8.70353 28.8401 9.37064 28.5006 9.83358L25.3384 14.1591C24.9989 14.622 24.3294 14.7146 23.8474 14.3609C23.3655 14.0095 23.2492 13.3424 23.5863 12.8795L26.7485 8.55397C27.088 8.09103 27.7575 8.00081 28.2394 8.35217" fill="#E6332A"/>
<path fill-rule="evenodd" clip-rule="evenodd" d="M31.0894 15.0801C31.3695 15.6024 31.1036 16.2387 30.5695 16.4642L27.5711 17.7296C27.0369 17.9551 26.2511 17.7391 26.149 17.1646C26.0493 16.5877 26.1348 16.006 26.6689 15.7805L29.6673 14.5151C30.2015 14.2896 30.8093 14.5602 31.0894 15.0801Z" fill="#E6332A"/>
<path fill-rule="evenodd" clip-rule="evenodd" d="M32.5943 22.6343L27.7346 21.8604C26.3291 21.6372 26.5214 19.5385 27.9245 19.7617L32.7842 20.5356C34.1896 20.7588 33.9973 22.8575 32.5943 22.6343Z" fill="#E6332A"/>
<path fill-rule="evenodd" clip-rule="evenodd" d="M14.6574 8.53701C15.175 8.28061 15.8302 8.5655 16.0795 9.10203L17.4707 12.1147C17.7176 12.6512 17.53 13.4204 16.9508 13.4988C16.3715 13.5771 15.778 13.4703 15.5287 12.9338L14.1375 9.92108C13.8906 9.38455 14.1399 8.7934 14.6574 8.53701Z" fill="#E6332A"/>
<path fill-rule="evenodd" clip-rule="evenodd" d="M22.248 7.32859L21.6427 12.1052C21.467 13.4869 19.3351 13.221 19.5108 11.8393L20.1162 7.0627C20.2918 5.681 22.4237 5.94927 22.248 7.32859Z" fill="#E6332A"/>
</svg>
